<?xml version="1.0" standalone="no"?>
<!DOCTYPE svg PUBLIC "-//W3C//DTD SVG 20010904//EN"
 "http://www.w3.org/TR/2001/REC-SVG-20010904/DTD/svg10.dtd">
<svg version="1.0" xmlns="http://www.w3.org/2000/svg"
 width="400.000000pt" height="349.000000pt" viewBox="0 0 400.000000 349.000000"
 preserveAspectRatio="xMidYMid meet">
<metadata>
Created by potrace 1.15, written by Peter Selinger 2001-2017
</metadata>
<g transform="translate(0.000000,349.000000) scale(0.100000,-0.100000)"
fill="#000000" stroke="none">
<path d="M125 3473 c-44 -23 -84 -63 -106 -105 -18 -36 -19 -73 -19 -1032 l0
-994 45 -4 c42 -3 45 -2 46 22 1 17 4 13 10 -15 4 -22 8 -287 8 -588 1 -609 0
-600 66 -631 30 -14 214 -16 1825 -16 1611 0 1795 2 1825 16 66 31 65 21 66
641 1 307 5 572 9 588 8 30 8 30 9 3 1 -25 3 -26 32 -18 16 5 37 6 45 3 12 -4
14 127 14 991 0 898 -2 1000 -16 1029 -23 45 -63 86 -106 108 -36 18 -86 19
-1880 19 -1659 -1 -1846 -2 -1873 -17z m796 -460 c-11 -27 -51 -125 -89 -220
l-70 -171 119 -63 c65 -34 119 -66 119 -70 0 -9 -512 -470 -517 -465 -3 3 105
284 147 384 9 20 1 28 -105 99 -63 42 -115 79 -114 82 1 8 512 469 521 470 4
1 -1 -20 -11 -46z m869 -883 l0 -60 -300 0 -300 0 0 60 0 60 300 0 300 0 0
-60z"/>
</g>
</svg>
